<?xml version="1.0" encoding="UTF-8" standalone="no"?>
<!DOCTYPE svg PUBLIC "-//W3C//DTD SVG 1.1//EN" "http://www.w3.org/Graphics/SVG/1.1/DTD/svg11.dtd">
<svg xmlns="http://www.w3.org/2000/svg" version="1.1" viewBox="0.00 0.00 265.00 256.00">
<style>
    path, circle {
      fill: #39404f; <!-- ライトモードの色 -->
    }
    @media (prefers-color-scheme: dark) {
      path, circle {
        fill: #e1e1e1; <!-- ダークモードの色 -->
      }
    }
  </style>
<path fill="#000000" d="
  M 127.79 0.00
  L 137.53 0.00
  Q 183.30 2.27 216.90 30.35
  Q 261.58 67.71 265.00 127.56
  L 265.00 135.60
  Q 264.33 155.53 258.22 174.32
  A 0.29 0.29 0.0 0 1 257.68 174.36
  L 190.75 40.50
  A 0.28 0.28 0.0 0 0 190.25 40.50
  L 166.24 88.51
  A 0.41 0.41 0.0 0 1 165.63 88.67
  C 131.23 64.62 84.05 83.95 78.49 126.07
  C 74.98 152.69 91.24 177.44 117.05 185.61
  Q 117.61 185.78 117.35 186.31
  L 83.10 254.80
  Q 82.85 255.30 82.34 255.09
  C 33.33 234.67 1.73 188.76 0.00 135.66
  L 0.00 127.39
  Q 3.50 67.55 48.25 30.25
  Q 81.96 2.15 127.79 0.00
  Z"
/>

<circle  cx="188.50" cy="152.50" r="27.45"/>
</svg>
